<mxfile host="app.diagrams.net" modified="2023-12-17T11:54:17.778Z" agent="Mozilla/5.0 (Windows NT 10.0; Win64; x64) AppleWebKit/537.36 (KHTML, like Gecko) Chrome/120.0.0.0 Safari/537.36 Edg/120.0.0.0" etag="evhUzHnZb04K0VEthzid" version="22.1.11" type="device">
  <diagram name="Side-1" id="QPkzFiPtLZKwwktkEOzZ">
    <mxGraphModel dx="1026" dy="425" grid="1" gridSize="10" guides="1" tooltips="1" connect="1" arrows="1" fold="1" page="1" pageScale="1" pageWidth="827" pageHeight="1169" math="0" shadow="0">
      <root>
        <mxCell id="0" />
        <mxCell id="1" parent="0" />
        <mxCell id="5vq2guYTCX3Dw7HBFXna-5" value="Cheep" style="swimlane;fontStyle=0;childLayout=stackLayout;horizontal=1;startSize=26;fillColor=#fff2cc;horizontalStack=0;resizeParent=1;resizeParentMax=0;resizeLast=0;collapsible=1;marginBottom=0;whiteSpace=wrap;html=1;strokeColor=#d6b656;" parent="1" vertex="1">
          <mxGeometry x="550" y="231" width="140" height="110" as="geometry" />
        </mxCell>
        <mxCell id="5vq2guYTCX3Dw7HBFXna-6" value="CheepId : Guid" style="text;strokeColor=#d6b656;fillColor=#fff2cc;align=left;verticalAlign=top;spacingLeft=4;spacingRight=4;overflow=hidden;rotatable=0;points=[[0,0.5],[1,0.5]];portConstraint=eastwest;whiteSpace=wrap;html=1;" parent="5vq2guYTCX3Dw7HBFXna-5" vertex="1">
          <mxGeometry y="26" width="140" height="26" as="geometry" />
        </mxCell>
        <mxCell id="5vq2guYTCX3Dw7HBFXna-7" value="Text : String" style="text;strokeColor=#d6b656;fillColor=#fff2cc;align=left;verticalAlign=top;spacingLeft=4;spacingRight=4;overflow=hidden;rotatable=0;points=[[0,0.5],[1,0.5]];portConstraint=eastwest;whiteSpace=wrap;html=1;" parent="5vq2guYTCX3Dw7HBFXna-5" vertex="1">
          <mxGeometry y="52" width="140" height="26" as="geometry" />
        </mxCell>
        <mxCell id="5vq2guYTCX3Dw7HBFXna-8" value="TimeStamp: Date" style="text;strokeColor=#d6b656;fillColor=#fff2cc;align=left;verticalAlign=top;spacingLeft=4;spacingRight=4;overflow=hidden;rotatable=0;points=[[0,0.5],[1,0.5]];portConstraint=eastwest;whiteSpace=wrap;html=1;" parent="5vq2guYTCX3Dw7HBFXna-5" vertex="1">
          <mxGeometry y="78" width="140" height="32" as="geometry" />
        </mxCell>
        <mxCell id="ZlB2pcDUouuNo8n4awLy-3" style="edgeStyle=none;curved=1;rounded=0;orthogonalLoop=1;jettySize=auto;html=1;exitX=1;exitY=0.5;exitDx=0;exitDy=0;entryX=0;entryY=0.5;entryDx=0;entryDy=0;fontSize=12;startSize=8;endSize=8;endArrow=none;endFill=0;" parent="1" source="5vq2guYTCX3Dw7HBFXna-10" target="5vq2guYTCX3Dw7HBFXna-5" edge="1">
          <mxGeometry relative="1" as="geometry" />
        </mxCell>
        <mxCell id="ZlB2pcDUouuNo8n4awLy-4" value="&lt;font style=&quot;font-size: 10px;&quot;&gt;Author 1&lt;/font&gt;" style="edgeLabel;html=1;align=center;verticalAlign=middle;resizable=0;points=[];fontSize=16;" parent="ZlB2pcDUouuNo8n4awLy-3" vertex="1" connectable="0">
          <mxGeometry x="-0.7667" y="2" relative="1" as="geometry">
            <mxPoint x="9" y="2" as="offset" />
          </mxGeometry>
        </mxCell>
        <mxCell id="ZlB2pcDUouuNo8n4awLy-5" value="&lt;font style=&quot;font-size: 10px;&quot;&gt;Cheeps *&lt;/font&gt;" style="edgeLabel;html=1;align=center;verticalAlign=middle;resizable=0;points=[];fontSize=16;" parent="ZlB2pcDUouuNo8n4awLy-3" vertex="1" connectable="0">
          <mxGeometry x="0.6259" y="-1" relative="1" as="geometry">
            <mxPoint y="-7" as="offset" />
          </mxGeometry>
        </mxCell>
        <mxCell id="5vq2guYTCX3Dw7HBFXna-10" value="Author" style="swimlane;fontStyle=0;childLayout=stackLayout;horizontal=1;startSize=26;fillColor=#fff2cc;horizontalStack=0;resizeParent=1;resizeParentMax=0;resizeLast=0;collapsible=1;marginBottom=0;whiteSpace=wrap;html=1;strokeColor=#d6b656;" parent="1" vertex="1">
          <mxGeometry x="230" y="271" width="140" height="30" as="geometry" />
        </mxCell>
        <mxCell id="5vq2guYTCX3Dw7HBFXna-14" value="IdentityUser" style="swimlane;fontStyle=0;childLayout=stackLayout;horizontal=1;startSize=26;fillColor=#fff2cc;horizontalStack=0;resizeParent=1;resizeParentMax=0;resizeLast=0;collapsible=1;marginBottom=0;whiteSpace=wrap;html=1;strokeColor=#d6b656;" parent="1" vertex="1">
          <mxGeometry x="230" y="20" width="140" height="104" as="geometry" />
        </mxCell>
        <mxCell id="5vq2guYTCX3Dw7HBFXna-15" value="+ Id : String" style="text;strokeColor=#d6b656;fillColor=#fff2cc;align=left;verticalAlign=top;spacingLeft=4;spacingRight=4;overflow=hidden;rotatable=0;points=[[0,0.5],[1,0.5]];portConstraint=eastwest;whiteSpace=wrap;html=1;" parent="5vq2guYTCX3Dw7HBFXna-14" vertex="1">
          <mxGeometry y="26" width="140" height="26" as="geometry" />
        </mxCell>
        <mxCell id="ZlB2pcDUouuNo8n4awLy-2" value="+ UserName : String&amp;nbsp;" style="text;strokeColor=#d6b656;fillColor=#fff2cc;align=left;verticalAlign=top;spacingLeft=4;spacingRight=4;overflow=hidden;rotatable=0;points=[[0,0.5],[1,0.5]];portConstraint=eastwest;whiteSpace=wrap;html=1;" parent="5vq2guYTCX3Dw7HBFXna-14" vertex="1">
          <mxGeometry y="52" width="140" height="26" as="geometry" />
        </mxCell>
        <mxCell id="ZlB2pcDUouuNo8n4awLy-1" value="+ Email : String" style="text;strokeColor=#d6b656;fillColor=#fff2cc;align=left;verticalAlign=top;spacingLeft=4;spacingRight=4;overflow=hidden;rotatable=0;points=[[0,0.5],[1,0.5]];portConstraint=eastwest;whiteSpace=wrap;html=1;" parent="5vq2guYTCX3Dw7HBFXna-14" vertex="1">
          <mxGeometry y="78" width="140" height="26" as="geometry" />
        </mxCell>
        <mxCell id="5vq2guYTCX3Dw7HBFXna-19" value="" style="endArrow=block;endSize=16;endFill=0;html=1;rounded=0;exitX=0.5;exitY=0;exitDx=0;exitDy=0;entryX=0.5;entryY=1;entryDx=0;entryDy=0;dashed=1;" parent="1" source="5vq2guYTCX3Dw7HBFXna-10" target="5vq2guYTCX3Dw7HBFXna-14" edge="1">
          <mxGeometry x="-1" y="-240" width="160" relative="1" as="geometry">
            <mxPoint x="240" y="120" as="sourcePoint" />
            <mxPoint x="400" y="120" as="targetPoint" />
            <Array as="points" />
            <mxPoint x="-240" y="-240" as="offset" />
          </mxGeometry>
        </mxCell>
        <mxCell id="5vq2guYTCX3Dw7HBFXna-20" style="rounded=0;orthogonalLoop=1;jettySize=auto;html=1;exitX=1;exitY=0.5;exitDx=0;exitDy=0;entryX=0;entryY=0.5;entryDx=0;entryDy=0;startArrow=classic;startFill=1;" parent="1" target="5vq2guYTCX3Dw7HBFXna-5" edge="1">
          <mxGeometry relative="1" as="geometry" />
        </mxCell>
        <mxCell id="5vq2guYTCX3Dw7HBFXna-21" value="0..M" style="edgeLabel;html=1;align=center;verticalAlign=middle;resizable=0;points=[];" parent="5vq2guYTCX3Dw7HBFXna-20" vertex="1" connectable="0">
          <mxGeometry x="0.6354" y="1" relative="1" as="geometry">
            <mxPoint as="offset" />
          </mxGeometry>
        </mxCell>
        <mxCell id="5vq2guYTCX3Dw7HBFXna-22" value="1..1" style="edgeLabel;html=1;align=center;verticalAlign=middle;resizable=0;points=[];rotation=0;" parent="5vq2guYTCX3Dw7HBFXna-20" vertex="1" connectable="0">
          <mxGeometry x="-0.7254" y="1" relative="1" as="geometry">
            <mxPoint as="offset" />
          </mxGeometry>
        </mxCell>
        <mxCell id="5vq2guYTCX3Dw7HBFXna-23" value="Author" style="edgeLabel;html=1;align=center;verticalAlign=middle;resizable=0;points=[];" parent="5vq2guYTCX3Dw7HBFXna-20" vertex="1" connectable="0">
          <mxGeometry x="0.322" y="2" relative="1" as="geometry">
            <mxPoint x="-1" as="offset" />
          </mxGeometry>
        </mxCell>
        <mxCell id="5vq2guYTCX3Dw7HBFXna-24" value="Cheep" style="edgeLabel;html=1;align=center;verticalAlign=middle;resizable=0;points=[];" parent="5vq2guYTCX3Dw7HBFXna-20" vertex="1" connectable="0">
          <mxGeometry x="-0.5654" y="-3" relative="1" as="geometry">
            <mxPoint x="13" as="offset" />
          </mxGeometry>
        </mxCell>
        <mxCell id="ZlB2pcDUouuNo8n4awLy-7" style="edgeStyle=elbowEdgeStyle;rounded=0;orthogonalLoop=1;jettySize=auto;html=1;exitX=0.25;exitY=0;exitDx=0;exitDy=0;entryX=0;entryY=0;entryDx=0;entryDy=0;fontSize=12;startSize=8;endSize=8;" parent="1" source="5vq2guYTCX3Dw7HBFXna-10" target="5vq2guYTCX3Dw7HBFXna-10" edge="1">
          <mxGeometry relative="1" as="geometry">
            <Array as="points">
              <mxPoint x="248" y="240" />
            </Array>
          </mxGeometry>
        </mxCell>
        <mxCell id="ZlB2pcDUouuNo8n4awLy-8" value="&lt;font style=&quot;font-size: 10px;&quot;&gt;Following &lt;/font&gt;&lt;font style=&quot;font-size: 12px;&quot;&gt;*&lt;/font&gt;" style="edgeLabel;html=1;align=center;verticalAlign=middle;resizable=0;points=[];fontSize=16;" parent="ZlB2pcDUouuNo8n4awLy-7" vertex="1" connectable="0">
          <mxGeometry x="0.342" relative="1" as="geometry">
            <mxPoint as="offset" />
          </mxGeometry>
        </mxCell>
        <mxCell id="ZlB2pcDUouuNo8n4awLy-9" style="edgeStyle=elbowEdgeStyle;rounded=0;orthogonalLoop=1;jettySize=auto;html=1;exitX=1;exitY=0;exitDx=0;exitDy=0;entryX=0.698;entryY=-0.014;entryDx=0;entryDy=0;entryPerimeter=0;fontSize=12;startSize=8;endSize=8;" parent="1" source="5vq2guYTCX3Dw7HBFXna-10" target="5vq2guYTCX3Dw7HBFXna-10" edge="1">
          <mxGeometry relative="1" as="geometry">
            <Array as="points">
              <mxPoint x="349" y="240" />
            </Array>
          </mxGeometry>
        </mxCell>
        <mxCell id="ZlB2pcDUouuNo8n4awLy-10" value="&lt;font style=&quot;font-size: 10px;&quot;&gt;Followers &lt;/font&gt;&lt;font style=&quot;font-size: 12px;&quot;&gt;*&lt;/font&gt;" style="edgeLabel;html=1;align=center;verticalAlign=middle;resizable=0;points=[];fontSize=16;" parent="ZlB2pcDUouuNo8n4awLy-9" vertex="1" connectable="0">
          <mxGeometry x="-0.4169" relative="1" as="geometry">
            <mxPoint as="offset" />
          </mxGeometry>
        </mxCell>
      </root>
    </mxGraphModel>
  </diagram>
</mxfile>
